<mxfile host="app.diagrams.net" modified="2023-09-26T06:34:41.399Z" agent="Mozilla/5.0 (Macintosh; Intel Mac OS X 10_15_7) AppleWebKit/605.1.15 (KHTML, like Gecko) Version/16.5 Safari/605.1.15" version="21.8.2" etag="XduPtbktDbqgH_gKI8Ok" type="github">
  <diagram name="Page-1" id="fcFERjy6AslzwrfIy_7s">
    <mxGraphModel>
      <root>
        <mxCell id="0" />
        <mxCell id="1" parent="0" />
      </root>
    </mxGraphModel>
  </diagram>
</mxfile>
